<?xml version="1.0" encoding="UTF-8"?>
<svg width="120" height="30" viewBox="0 0 120 30" fill="none" xmlns="http://www.w3.org/2000/svg">
  <path d="M23.1 7.5C23.1 3.4 19.7 0 15.6 0C11.5 0 8.1 3.4 8.1 7.5C8.1 11.6 11.5 15 15.6 15C19.7 15 23.1 11.6 23.1 7.5Z" fill="#FF0000"/>
  <path d="M38.1 7.5C38.1 3.4 34.7 0 30.6 0C26.5 0 23.1 3.4 23.1 7.5C23.1 11.6 26.5 15 30.6 15C34.7 15 38.1 11.6 38.1 7.5Z" fill="#FF9933"/>
  <path d="M53.1 7.5C53.1 3.4 49.7 0 45.6 0C41.5 0 38.1 3.4 38.1 7.5C38.1 11.6 41.5 15 45.6 15C49.7 15 53.1 11.6 53.1 7.5Z" fill="#FFCC00"/>
  <path d="M15.6 30C19.7 30 23.1 26.6 23.1 22.5C23.1 18.4 19.7 15 15.6 15C11.5 15 8.1 18.4 8.1 22.5C8.1 26.6 11.5 30 15.6 30Z" fill="#339966"/>
  <path d="M30.6 30C34.7 30 38.1 26.6 38.1 22.5C38.1 18.4 34.7 15 30.6 15C26.5 15 23.1 18.4 23.1 22.5C23.1 26.6 26.5 30 30.6 30Z" fill="#0066CC"/>
  <path d="M45.6 30C49.7 30 53.1 26.6 53.1 22.5C53.1 18.4 49.7 15 45.6 15C41.5 15 38.1 18.4 38.1 22.5C38.1 26.6 41.5 30 45.6 30Z" fill="#663399"/>
  <path d="M68.1 11.2H64.5V18.8H68.1C70.3 18.8 72.1 17 72.1 14.8C72.1 12.6 70.3 11.2 68.1 11.2Z" fill="#072654"/>
  <path d="M83.1 11.2H79.5V18.8H83.1C85.3 18.8 87.1 17 87.1 14.8C87.1 12.6 85.3 11.2 83.1 11.2Z" fill="#072654"/>
  <path d="M98.1 11.2H94.5V18.8H98.1C100.3 18.8 102.1 17 102.1 14.8C102.1 12.6 100.3 11.2 98.1 11.2Z" fill="#072654"/>
  <path d="M113.1 11.2H109.5V18.8H113.1C115.3 18.8 117.1 17 117.1 14.8C117.1 12.6 115.3 11.2 113.1 11.2Z" fill="#072654"/>
</svg>