<?xml version="1.0" encoding="UTF-8"?>
<svg width="120" height="30" viewBox="0 0 120 30" fill="none" xmlns="http://www.w3.org/2000/svg">
  <path d="M17.4 9.2L11.7 20.4H7.2L4.5 13.9L1.8 20.4H0L4.2 9.2H5.9L8.7 15.9L11.5 9.2H17.4Z" fill="#072654"/>
  <path d="M23.7 9.2L21 15.7L18.3 9.2H16.5L20.7 20.4H22.4L25.2 13.7L28 20.4H29.7L33.9 9.2H32.1L29.4 15.7L26.7 9.2H23.7Z" fill="#072654"/>
  <path d="M39.6 9.2V20.4H37.8V9.2H39.6Z" fill="#072654"/>
  <path d="M49.8 9.2V10.9H44.1V13.9H48.9V15.6H44.1V18.7H49.8V20.4H42.3V9.2H49.8Z" fill="#072654"/>
  <path d="M60 9.2V10.9H54.3V13.9H59.1V15.6H54.3V18.7H60V20.4H52.5V9.2H60Z" fill="#072654"/>
  <path d="M70.2 9.2V10.9H64.5V13.9H69.3V15.6H64.5V18.7H70.2V20.4H62.7V9.2H70.2Z" fill="#072654"/>
  <path d="M80.4 9.2V10.9H74.7V13.9H79.5V15.6H74.7V18.7H80.4V20.4H72.9V9.2H80.4Z" fill="#072654"/>
  <path d="M90.6 9.2V10.9H84.9V13.9H89.7V15.6H84.9V18.7H90.6V20.4H83.1V9.2H90.6Z" fill="#072654"/>
  <path d="M100.8 9.2V10.9H95.1V13.9H99.9V15.6H95.1V18.7H100.8V20.4H93.3V9.2H100.8Z" fill="#072654"/>
  <path d="M111 9.2V10.9H105.3V13.9H110.1V15.6H105.3V18.7H111V20.4H103.5V9.2H111Z" fill="#072654"/>
</svg>